<mxfile host="app.diagrams.net" modified="2023-04-12T16:21:29.444Z" agent="Mozilla/5.0 (X11; Ubuntu; Linux x86_64; rv:109.0) Gecko/20100101 Firefox/111.0" etag="J4qLiuZDSgDbhKyMuR78" version="21.1.5" type="device">
  <diagram id="R2lEEEUBdFMjLlhIrx00" name="Page-1">
    <mxGraphModel dx="2049" dy="1031" grid="1" gridSize="10" guides="1" tooltips="1" connect="1" arrows="1" fold="1" page="1" pageScale="1" pageWidth="850" pageHeight="1100" math="0" shadow="0" extFonts="Permanent Marker^https://fonts.googleapis.com/css?family=Permanent+Marker">
      <root>
        <mxCell id="0" />
        <mxCell id="1" parent="0" />
        <mxCell id="VL071i1AqDFCpZDAVw9u-1" value="" style="rounded=1;whiteSpace=wrap;html=1;" parent="1" vertex="1">
          <mxGeometry x="30" y="105" width="530" height="335" as="geometry" />
        </mxCell>
        <object label="games" email="email&#xa;test" id="C-vyLk0tnHw3VtMMgP7b-23">
          <mxCell style="shape=table;startSize=30;container=1;collapsible=1;childLayout=tableLayout;fixedRows=1;rowLines=0;fontStyle=1;align=center;resizeLast=1;" parent="1" vertex="1">
            <mxGeometry x="85" y="125" width="435" height="301" as="geometry">
              <mxRectangle x="85" y="80" width="80" height="30" as="alternateBounds" />
            </mxGeometry>
          </mxCell>
        </object>
        <mxCell id="C-vyLk0tnHw3VtMMgP7b-24" value="" style="shape=partialRectangle;collapsible=0;dropTarget=0;pointerEvents=0;fillColor=none;points=[[0,0.5],[1,0.5]];portConstraint=eastwest;top=0;left=0;right=0;bottom=1;" parent="C-vyLk0tnHw3VtMMgP7b-23" vertex="1">
          <mxGeometry y="30" width="435" height="30" as="geometry" />
        </mxCell>
        <mxCell id="C-vyLk0tnHw3VtMMgP7b-25" value="PK" style="shape=partialRectangle;overflow=hidden;connectable=0;fillColor=none;top=0;left=0;bottom=0;right=0;fontStyle=1;" parent="C-vyLk0tnHw3VtMMgP7b-24" vertex="1">
          <mxGeometry width="30" height="30" as="geometry">
            <mxRectangle width="30" height="30" as="alternateBounds" />
          </mxGeometry>
        </mxCell>
        <mxCell id="C-vyLk0tnHw3VtMMgP7b-26" value="game_id varchar(255) PRIMARY KEY UNIQUE NOT NULL " style="shape=partialRectangle;overflow=hidden;connectable=0;fillColor=none;top=0;left=0;bottom=0;right=0;align=left;spacingLeft=6;fontStyle=1;" parent="C-vyLk0tnHw3VtMMgP7b-24" vertex="1">
          <mxGeometry x="30" width="405" height="30" as="geometry">
            <mxRectangle width="405" height="30" as="alternateBounds" />
          </mxGeometry>
        </mxCell>
        <mxCell id="C-vyLk0tnHw3VtMMgP7b-27" value="" style="shape=partialRectangle;collapsible=0;dropTarget=0;pointerEvents=0;fillColor=none;points=[[0,0.5],[1,0.5]];portConstraint=eastwest;top=0;left=0;right=0;bottom=0;" parent="C-vyLk0tnHw3VtMMgP7b-23" vertex="1">
          <mxGeometry y="60" width="435" height="31" as="geometry" />
        </mxCell>
        <mxCell id="C-vyLk0tnHw3VtMMgP7b-28" value="" style="shape=partialRectangle;overflow=hidden;connectable=0;fillColor=none;top=0;left=0;bottom=0;right=0;" parent="C-vyLk0tnHw3VtMMgP7b-27" vertex="1">
          <mxGeometry width="30" height="31" as="geometry">
            <mxRectangle width="30" height="31" as="alternateBounds" />
          </mxGeometry>
        </mxCell>
        <mxCell id="C-vyLk0tnHw3VtMMgP7b-29" value="name varchar(255) UNIQUE NOT NULL" style="shape=partialRectangle;overflow=hidden;connectable=0;fillColor=none;top=0;left=0;bottom=0;right=0;align=left;spacingLeft=6;fontSize=13;" parent="C-vyLk0tnHw3VtMMgP7b-27" vertex="1">
          <mxGeometry x="30" width="405" height="31" as="geometry">
            <mxRectangle width="405" height="31" as="alternateBounds" />
          </mxGeometry>
        </mxCell>
        <mxCell id="VL071i1AqDFCpZDAVw9u-34" style="shape=partialRectangle;collapsible=0;dropTarget=0;pointerEvents=0;fillColor=none;points=[[0,0.5],[1,0.5]];portConstraint=eastwest;top=0;left=0;right=0;bottom=0;" parent="C-vyLk0tnHw3VtMMgP7b-23" vertex="1">
          <mxGeometry y="91" width="435" height="30" as="geometry" />
        </mxCell>
        <mxCell id="VL071i1AqDFCpZDAVw9u-35" style="shape=partialRectangle;overflow=hidden;connectable=0;fillColor=none;top=0;left=0;bottom=0;right=0;" parent="VL071i1AqDFCpZDAVw9u-34" vertex="1">
          <mxGeometry width="30" height="30" as="geometry">
            <mxRectangle width="30" height="30" as="alternateBounds" />
          </mxGeometry>
        </mxCell>
        <mxCell id="VL071i1AqDFCpZDAVw9u-36" value="release_date varchar(50) NOT NULL" style="shape=partialRectangle;overflow=hidden;connectable=0;fillColor=none;top=0;left=0;bottom=0;right=0;align=left;spacingLeft=6;fontSize=13;" parent="VL071i1AqDFCpZDAVw9u-34" vertex="1">
          <mxGeometry x="30" width="405" height="30" as="geometry">
            <mxRectangle width="405" height="30" as="alternateBounds" />
          </mxGeometry>
        </mxCell>
        <mxCell id="OKpWDmHDf1I66epjjTxF-31" style="shape=partialRectangle;collapsible=0;dropTarget=0;pointerEvents=0;fillColor=none;points=[[0,0.5],[1,0.5]];portConstraint=eastwest;top=0;left=0;right=0;bottom=0;strokeColor=default;" parent="C-vyLk0tnHw3VtMMgP7b-23" vertex="1">
          <mxGeometry y="121" width="435" height="30" as="geometry" />
        </mxCell>
        <mxCell id="OKpWDmHDf1I66epjjTxF-32" value="FK" style="shape=partialRectangle;overflow=hidden;connectable=0;fillColor=none;top=0;left=0;bottom=0;right=0;fontStyle=1" parent="OKpWDmHDf1I66epjjTxF-31" vertex="1">
          <mxGeometry width="30" height="30" as="geometry">
            <mxRectangle width="30" height="30" as="alternateBounds" />
          </mxGeometry>
        </mxCell>
        <mxCell id="OKpWDmHDf1I66epjjTxF-33" value="developer_id varchar(255) NOT NULL" style="shape=partialRectangle;overflow=hidden;connectable=0;fillColor=none;top=0;left=0;bottom=0;right=0;align=left;spacingLeft=6;fontSize=13;" parent="OKpWDmHDf1I66epjjTxF-31" vertex="1">
          <mxGeometry x="30" width="405" height="30" as="geometry">
            <mxRectangle width="405" height="30" as="alternateBounds" />
          </mxGeometry>
        </mxCell>
        <mxCell id="OKpWDmHDf1I66epjjTxF-34" style="shape=partialRectangle;collapsible=0;dropTarget=0;pointerEvents=0;fillColor=none;points=[[0,0.5],[1,0.5]];portConstraint=eastwest;top=0;left=0;right=0;bottom=0;" parent="C-vyLk0tnHw3VtMMgP7b-23" vertex="1">
          <mxGeometry y="151" width="435" height="30" as="geometry" />
        </mxCell>
        <mxCell id="OKpWDmHDf1I66epjjTxF-35" value="FK" style="shape=partialRectangle;overflow=hidden;connectable=0;fillColor=none;top=0;left=0;bottom=0;right=0;fontStyle=1" parent="OKpWDmHDf1I66epjjTxF-34" vertex="1">
          <mxGeometry width="30" height="30" as="geometry">
            <mxRectangle width="30" height="30" as="alternateBounds" />
          </mxGeometry>
        </mxCell>
        <mxCell id="OKpWDmHDf1I66epjjTxF-36" value="publisher_id varchar(255) NOT NULL" style="shape=partialRectangle;overflow=hidden;connectable=0;fillColor=none;top=0;left=0;bottom=0;right=0;align=left;spacingLeft=6;fontSize=13;" parent="OKpWDmHDf1I66epjjTxF-34" vertex="1">
          <mxGeometry x="30" width="405" height="30" as="geometry">
            <mxRectangle width="405" height="30" as="alternateBounds" />
          </mxGeometry>
        </mxCell>
        <mxCell id="OKpWDmHDf1I66epjjTxF-37" style="shape=partialRectangle;collapsible=0;dropTarget=0;pointerEvents=0;fillColor=none;points=[[0,0.5],[1,0.5]];portConstraint=eastwest;top=0;left=0;right=0;bottom=0;" parent="C-vyLk0tnHw3VtMMgP7b-23" vertex="1">
          <mxGeometry y="181" width="435" height="30" as="geometry" />
        </mxCell>
        <mxCell id="OKpWDmHDf1I66epjjTxF-38" style="shape=partialRectangle;overflow=hidden;connectable=0;fillColor=none;top=0;left=0;bottom=0;right=0;" parent="OKpWDmHDf1I66epjjTxF-37" vertex="1">
          <mxGeometry width="30" height="30" as="geometry">
            <mxRectangle width="30" height="30" as="alternateBounds" />
          </mxGeometry>
        </mxCell>
        <mxCell id="OKpWDmHDf1I66epjjTxF-39" value="price numeric(10,2) NOT NULL" style="shape=partialRectangle;overflow=hidden;connectable=0;fillColor=none;top=0;left=0;bottom=0;right=0;align=left;spacingLeft=6;fontSize=13;" parent="OKpWDmHDf1I66epjjTxF-37" vertex="1">
          <mxGeometry x="30" width="405" height="30" as="geometry">
            <mxRectangle width="405" height="30" as="alternateBounds" />
          </mxGeometry>
        </mxCell>
        <mxCell id="OKpWDmHDf1I66epjjTxF-40" style="shape=partialRectangle;collapsible=0;dropTarget=0;pointerEvents=0;fillColor=none;points=[[0,0.5],[1,0.5]];portConstraint=eastwest;top=0;left=0;right=0;bottom=0;" parent="C-vyLk0tnHw3VtMMgP7b-23" vertex="1">
          <mxGeometry y="211" width="435" height="30" as="geometry" />
        </mxCell>
        <mxCell id="OKpWDmHDf1I66epjjTxF-41" style="shape=partialRectangle;overflow=hidden;connectable=0;fillColor=none;top=0;left=0;bottom=0;right=0;" parent="OKpWDmHDf1I66epjjTxF-40" vertex="1">
          <mxGeometry width="30" height="30" as="geometry">
            <mxRectangle width="30" height="30" as="alternateBounds" />
          </mxGeometry>
        </mxCell>
        <mxCell id="OKpWDmHDf1I66epjjTxF-42" value="discount numeric(10,2) NOT NULL" style="shape=partialRectangle;overflow=hidden;connectable=0;fillColor=none;top=0;left=0;bottom=0;right=0;align=left;spacingLeft=6;fontSize=13;" parent="OKpWDmHDf1I66epjjTxF-40" vertex="1">
          <mxGeometry x="30" width="405" height="30" as="geometry">
            <mxRectangle width="405" height="30" as="alternateBounds" />
          </mxGeometry>
        </mxCell>
        <mxCell id="OKpWDmHDf1I66epjjTxF-43" style="shape=partialRectangle;collapsible=0;dropTarget=0;pointerEvents=0;fillColor=none;points=[[0,0.5],[1,0.5]];portConstraint=eastwest;top=0;left=0;right=0;bottom=0;" parent="C-vyLk0tnHw3VtMMgP7b-23" vertex="1">
          <mxGeometry y="241" width="435" height="30" as="geometry" />
        </mxCell>
        <mxCell id="OKpWDmHDf1I66epjjTxF-44" style="shape=partialRectangle;overflow=hidden;connectable=0;fillColor=none;top=0;left=0;bottom=0;right=0;" parent="OKpWDmHDf1I66epjjTxF-43" vertex="1">
          <mxGeometry width="30" height="30" as="geometry">
            <mxRectangle width="30" height="30" as="alternateBounds" />
          </mxGeometry>
        </mxCell>
        <mxCell id="OKpWDmHDf1I66epjjTxF-45" value="description varchar NOT NULL" style="shape=partialRectangle;overflow=hidden;connectable=0;fillColor=none;top=0;left=0;bottom=0;right=0;align=left;spacingLeft=6;fontSize=13;" parent="OKpWDmHDf1I66epjjTxF-43" vertex="1">
          <mxGeometry x="30" width="405" height="30" as="geometry">
            <mxRectangle width="405" height="30" as="alternateBounds" />
          </mxGeometry>
        </mxCell>
        <mxCell id="OKpWDmHDf1I66epjjTxF-46" style="shape=partialRectangle;collapsible=0;dropTarget=0;pointerEvents=0;fillColor=none;points=[[0,0.5],[1,0.5]];portConstraint=eastwest;top=0;left=0;right=0;bottom=0;" parent="C-vyLk0tnHw3VtMMgP7b-23" vertex="1">
          <mxGeometry y="271" width="435" height="30" as="geometry" />
        </mxCell>
        <mxCell id="OKpWDmHDf1I66epjjTxF-47" style="shape=partialRectangle;overflow=hidden;connectable=0;fillColor=none;top=0;left=0;bottom=0;right=0;" parent="OKpWDmHDf1I66epjjTxF-46" vertex="1">
          <mxGeometry width="30" height="30" as="geometry">
            <mxRectangle width="30" height="30" as="alternateBounds" />
          </mxGeometry>
        </mxCell>
        <mxCell id="OKpWDmHDf1I66epjjTxF-48" value="base64Image varchar NOT NULL" style="shape=partialRectangle;overflow=hidden;connectable=0;fillColor=none;top=0;left=0;bottom=0;right=0;align=left;spacingLeft=6;fontSize=13;" parent="OKpWDmHDf1I66epjjTxF-46" vertex="1">
          <mxGeometry x="30" width="405" height="30" as="geometry">
            <mxRectangle width="405" height="30" as="alternateBounds" />
          </mxGeometry>
        </mxCell>
        <mxCell id="aKT1de0LB3l2bq885Tbr-20" value="" style="rounded=1;whiteSpace=wrap;html=1;" vertex="1" parent="1">
          <mxGeometry x="730" y="115" width="530" height="130" as="geometry" />
        </mxCell>
        <object label="developers" email="email&#xa;test" id="aKT1de0LB3l2bq885Tbr-21">
          <mxCell style="shape=table;startSize=30;container=1;collapsible=1;childLayout=tableLayout;fixedRows=1;rowLines=0;fontStyle=1;align=center;resizeLast=1;" vertex="1" parent="1">
            <mxGeometry x="785" y="135" width="435" height="91" as="geometry">
              <mxRectangle x="85" y="80" width="80" height="30" as="alternateBounds" />
            </mxGeometry>
          </mxCell>
        </object>
        <mxCell id="aKT1de0LB3l2bq885Tbr-22" value="" style="shape=partialRectangle;collapsible=0;dropTarget=0;pointerEvents=0;fillColor=none;points=[[0,0.5],[1,0.5]];portConstraint=eastwest;top=0;left=0;right=0;bottom=1;" vertex="1" parent="aKT1de0LB3l2bq885Tbr-21">
          <mxGeometry y="30" width="435" height="30" as="geometry" />
        </mxCell>
        <mxCell id="aKT1de0LB3l2bq885Tbr-23" value="PK" style="shape=partialRectangle;overflow=hidden;connectable=0;fillColor=none;top=0;left=0;bottom=0;right=0;fontStyle=1;" vertex="1" parent="aKT1de0LB3l2bq885Tbr-22">
          <mxGeometry width="30" height="30" as="geometry">
            <mxRectangle width="30" height="30" as="alternateBounds" />
          </mxGeometry>
        </mxCell>
        <mxCell id="aKT1de0LB3l2bq885Tbr-24" value="developer_id varchar(255) PRIMARY KEY UNIQUE NOT NULL" style="shape=partialRectangle;overflow=hidden;connectable=0;fillColor=none;top=0;left=0;bottom=0;right=0;align=left;spacingLeft=6;fontStyle=1;" vertex="1" parent="aKT1de0LB3l2bq885Tbr-22">
          <mxGeometry x="30" width="405" height="30" as="geometry">
            <mxRectangle width="405" height="30" as="alternateBounds" />
          </mxGeometry>
        </mxCell>
        <mxCell id="aKT1de0LB3l2bq885Tbr-25" value="" style="shape=partialRectangle;collapsible=0;dropTarget=0;pointerEvents=0;fillColor=none;points=[[0,0.5],[1,0.5]];portConstraint=eastwest;top=0;left=0;right=0;bottom=0;" vertex="1" parent="aKT1de0LB3l2bq885Tbr-21">
          <mxGeometry y="60" width="435" height="31" as="geometry" />
        </mxCell>
        <mxCell id="aKT1de0LB3l2bq885Tbr-26" value="" style="shape=partialRectangle;overflow=hidden;connectable=0;fillColor=none;top=0;left=0;bottom=0;right=0;" vertex="1" parent="aKT1de0LB3l2bq885Tbr-25">
          <mxGeometry width="30" height="31" as="geometry">
            <mxRectangle width="30" height="31" as="alternateBounds" />
          </mxGeometry>
        </mxCell>
        <mxCell id="aKT1de0LB3l2bq885Tbr-27" value="developer_name varchar(255) NOT NULL" style="shape=partialRectangle;overflow=hidden;connectable=0;fillColor=none;top=0;left=0;bottom=0;right=0;align=left;spacingLeft=6;fontSize=13;" vertex="1" parent="aKT1de0LB3l2bq885Tbr-25">
          <mxGeometry x="30" width="405" height="31" as="geometry">
            <mxRectangle width="405" height="31" as="alternateBounds" />
          </mxGeometry>
        </mxCell>
        <mxCell id="aKT1de0LB3l2bq885Tbr-53" value="" style="rounded=1;whiteSpace=wrap;html=1;" vertex="1" parent="1">
          <mxGeometry x="730" y="275" width="530" height="130" as="geometry" />
        </mxCell>
        <object label="publishers" email="email&#xa;test" id="aKT1de0LB3l2bq885Tbr-55">
          <mxCell style="shape=table;startSize=30;container=1;collapsible=1;childLayout=tableLayout;fixedRows=1;rowLines=0;fontStyle=1;align=center;resizeLast=1;" vertex="1" parent="1">
            <mxGeometry x="785" y="294.5" width="435" height="91" as="geometry">
              <mxRectangle x="85" y="80" width="80" height="30" as="alternateBounds" />
            </mxGeometry>
          </mxCell>
        </object>
        <mxCell id="aKT1de0LB3l2bq885Tbr-56" value="" style="shape=partialRectangle;collapsible=0;dropTarget=0;pointerEvents=0;fillColor=none;points=[[0,0.5],[1,0.5]];portConstraint=eastwest;top=0;left=0;right=0;bottom=1;" vertex="1" parent="aKT1de0LB3l2bq885Tbr-55">
          <mxGeometry y="30" width="435" height="30" as="geometry" />
        </mxCell>
        <mxCell id="aKT1de0LB3l2bq885Tbr-57" value="PK" style="shape=partialRectangle;overflow=hidden;connectable=0;fillColor=none;top=0;left=0;bottom=0;right=0;fontStyle=1;" vertex="1" parent="aKT1de0LB3l2bq885Tbr-56">
          <mxGeometry width="30" height="30" as="geometry">
            <mxRectangle width="30" height="30" as="alternateBounds" />
          </mxGeometry>
        </mxCell>
        <mxCell id="aKT1de0LB3l2bq885Tbr-58" value="publisher_id varchar(255) PRIMARY KEY UNIQUE NOT NULL" style="shape=partialRectangle;overflow=hidden;connectable=0;fillColor=none;top=0;left=0;bottom=0;right=0;align=left;spacingLeft=6;fontStyle=1;" vertex="1" parent="aKT1de0LB3l2bq885Tbr-56">
          <mxGeometry x="30" width="405" height="30" as="geometry">
            <mxRectangle width="405" height="30" as="alternateBounds" />
          </mxGeometry>
        </mxCell>
        <mxCell id="aKT1de0LB3l2bq885Tbr-59" value="" style="shape=partialRectangle;collapsible=0;dropTarget=0;pointerEvents=0;fillColor=none;points=[[0,0.5],[1,0.5]];portConstraint=eastwest;top=0;left=0;right=0;bottom=0;" vertex="1" parent="aKT1de0LB3l2bq885Tbr-55">
          <mxGeometry y="60" width="435" height="31" as="geometry" />
        </mxCell>
        <mxCell id="aKT1de0LB3l2bq885Tbr-60" value="" style="shape=partialRectangle;overflow=hidden;connectable=0;fillColor=none;top=0;left=0;bottom=0;right=0;" vertex="1" parent="aKT1de0LB3l2bq885Tbr-59">
          <mxGeometry width="30" height="31" as="geometry">
            <mxRectangle width="30" height="31" as="alternateBounds" />
          </mxGeometry>
        </mxCell>
        <mxCell id="aKT1de0LB3l2bq885Tbr-61" value="publisher_name varchar(255) NOT NULL" style="shape=partialRectangle;overflow=hidden;connectable=0;fillColor=none;top=0;left=0;bottom=0;right=0;align=left;spacingLeft=6;fontSize=13;" vertex="1" parent="aKT1de0LB3l2bq885Tbr-59">
          <mxGeometry x="30" width="405" height="31" as="geometry">
            <mxRectangle width="405" height="31" as="alternateBounds" />
          </mxGeometry>
        </mxCell>
        <mxCell id="aKT1de0LB3l2bq885Tbr-62" value="" style="rounded=1;whiteSpace=wrap;html=1;" vertex="1" parent="1">
          <mxGeometry x="720" y="595" width="530" height="130" as="geometry" />
        </mxCell>
        <object label="genres" email="email&#xa;test" id="aKT1de0LB3l2bq885Tbr-63">
          <mxCell style="shape=table;startSize=30;container=1;collapsible=1;childLayout=tableLayout;fixedRows=1;rowLines=0;fontStyle=1;align=center;resizeLast=1;" vertex="1" parent="1">
            <mxGeometry x="775" y="614.5" width="435" height="91" as="geometry">
              <mxRectangle x="85" y="80" width="80" height="30" as="alternateBounds" />
            </mxGeometry>
          </mxCell>
        </object>
        <mxCell id="aKT1de0LB3l2bq885Tbr-64" value="" style="shape=partialRectangle;collapsible=0;dropTarget=0;pointerEvents=0;fillColor=none;points=[[0,0.5],[1,0.5]];portConstraint=eastwest;top=0;left=0;right=0;bottom=1;" vertex="1" parent="aKT1de0LB3l2bq885Tbr-63">
          <mxGeometry y="30" width="435" height="30" as="geometry" />
        </mxCell>
        <mxCell id="aKT1de0LB3l2bq885Tbr-65" value="PK" style="shape=partialRectangle;overflow=hidden;connectable=0;fillColor=none;top=0;left=0;bottom=0;right=0;fontStyle=1;" vertex="1" parent="aKT1de0LB3l2bq885Tbr-64">
          <mxGeometry width="30" height="30" as="geometry">
            <mxRectangle width="30" height="30" as="alternateBounds" />
          </mxGeometry>
        </mxCell>
        <mxCell id="aKT1de0LB3l2bq885Tbr-66" value="genre_id varchar(255) PRIMARY KEY UNIQUE NOT NULL" style="shape=partialRectangle;overflow=hidden;connectable=0;fillColor=none;top=0;left=0;bottom=0;right=0;align=left;spacingLeft=6;fontStyle=1;" vertex="1" parent="aKT1de0LB3l2bq885Tbr-64">
          <mxGeometry x="30" width="405" height="30" as="geometry">
            <mxRectangle width="405" height="30" as="alternateBounds" />
          </mxGeometry>
        </mxCell>
        <mxCell id="aKT1de0LB3l2bq885Tbr-67" value="" style="shape=partialRectangle;collapsible=0;dropTarget=0;pointerEvents=0;fillColor=none;points=[[0,0.5],[1,0.5]];portConstraint=eastwest;top=0;left=0;right=0;bottom=0;" vertex="1" parent="aKT1de0LB3l2bq885Tbr-63">
          <mxGeometry y="60" width="435" height="31" as="geometry" />
        </mxCell>
        <mxCell id="aKT1de0LB3l2bq885Tbr-68" value="" style="shape=partialRectangle;overflow=hidden;connectable=0;fillColor=none;top=0;left=0;bottom=0;right=0;" vertex="1" parent="aKT1de0LB3l2bq885Tbr-67">
          <mxGeometry width="30" height="31" as="geometry">
            <mxRectangle width="30" height="31" as="alternateBounds" />
          </mxGeometry>
        </mxCell>
        <mxCell id="aKT1de0LB3l2bq885Tbr-69" value="genre_name varchar(255) NOT NULL" style="shape=partialRectangle;overflow=hidden;connectable=0;fillColor=none;top=0;left=0;bottom=0;right=0;align=left;spacingLeft=6;fontSize=13;" vertex="1" parent="aKT1de0LB3l2bq885Tbr-67">
          <mxGeometry x="30" width="405" height="31" as="geometry">
            <mxRectangle width="405" height="31" as="alternateBounds" />
          </mxGeometry>
        </mxCell>
        <mxCell id="aKT1de0LB3l2bq885Tbr-71" value="" style="rounded=1;whiteSpace=wrap;html=1;" vertex="1" parent="1">
          <mxGeometry x="720" y="755.5" width="530" height="130" as="geometry" />
        </mxCell>
        <object label="platforms" email="email&#xa;test" id="aKT1de0LB3l2bq885Tbr-72">
          <mxCell style="shape=table;startSize=30;container=1;collapsible=1;childLayout=tableLayout;fixedRows=1;rowLines=0;fontStyle=1;align=center;resizeLast=1;" vertex="1" parent="1">
            <mxGeometry x="775" y="775" width="435" height="91" as="geometry">
              <mxRectangle x="85" y="80" width="80" height="30" as="alternateBounds" />
            </mxGeometry>
          </mxCell>
        </object>
        <mxCell id="aKT1de0LB3l2bq885Tbr-73" value="" style="shape=partialRectangle;collapsible=0;dropTarget=0;pointerEvents=0;fillColor=none;points=[[0,0.5],[1,0.5]];portConstraint=eastwest;top=0;left=0;right=0;bottom=1;" vertex="1" parent="aKT1de0LB3l2bq885Tbr-72">
          <mxGeometry y="30" width="435" height="30" as="geometry" />
        </mxCell>
        <mxCell id="aKT1de0LB3l2bq885Tbr-74" value="PK" style="shape=partialRectangle;overflow=hidden;connectable=0;fillColor=none;top=0;left=0;bottom=0;right=0;fontStyle=1;" vertex="1" parent="aKT1de0LB3l2bq885Tbr-73">
          <mxGeometry width="30" height="30" as="geometry">
            <mxRectangle width="30" height="30" as="alternateBounds" />
          </mxGeometry>
        </mxCell>
        <mxCell id="aKT1de0LB3l2bq885Tbr-75" value="platform_id varchar(255) PRIMARY KEY UNIQUE NOT NULL" style="shape=partialRectangle;overflow=hidden;connectable=0;fillColor=none;top=0;left=0;bottom=0;right=0;align=left;spacingLeft=6;fontStyle=1;" vertex="1" parent="aKT1de0LB3l2bq885Tbr-73">
          <mxGeometry x="30" width="405" height="30" as="geometry">
            <mxRectangle width="405" height="30" as="alternateBounds" />
          </mxGeometry>
        </mxCell>
        <mxCell id="aKT1de0LB3l2bq885Tbr-76" value="" style="shape=partialRectangle;collapsible=0;dropTarget=0;pointerEvents=0;fillColor=none;points=[[0,0.5],[1,0.5]];portConstraint=eastwest;top=0;left=0;right=0;bottom=0;" vertex="1" parent="aKT1de0LB3l2bq885Tbr-72">
          <mxGeometry y="60" width="435" height="31" as="geometry" />
        </mxCell>
        <mxCell id="aKT1de0LB3l2bq885Tbr-77" value="" style="shape=partialRectangle;overflow=hidden;connectable=0;fillColor=none;top=0;left=0;bottom=0;right=0;" vertex="1" parent="aKT1de0LB3l2bq885Tbr-76">
          <mxGeometry width="30" height="31" as="geometry">
            <mxRectangle width="30" height="31" as="alternateBounds" />
          </mxGeometry>
        </mxCell>
        <mxCell id="aKT1de0LB3l2bq885Tbr-78" value="feature_id varchar(255) PRIMARY KEY UNIQUE NOT NULL" style="shape=partialRectangle;overflow=hidden;connectable=0;fillColor=none;top=0;left=0;bottom=0;right=0;align=left;spacingLeft=6;fontSize=13;" vertex="1" parent="aKT1de0LB3l2bq885Tbr-76">
          <mxGeometry x="30" width="405" height="31" as="geometry">
            <mxRectangle width="405" height="31" as="alternateBounds" />
          </mxGeometry>
        </mxCell>
        <mxCell id="aKT1de0LB3l2bq885Tbr-79" value="" style="rounded=1;whiteSpace=wrap;html=1;" vertex="1" parent="1">
          <mxGeometry x="720" y="915" width="530" height="130" as="geometry" />
        </mxCell>
        <object label="features" email="email&#xa;test" id="aKT1de0LB3l2bq885Tbr-80">
          <mxCell style="shape=table;startSize=30;container=1;collapsible=1;childLayout=tableLayout;fixedRows=1;rowLines=0;fontStyle=1;align=center;resizeLast=1;" vertex="1" parent="1">
            <mxGeometry x="775" y="934.5" width="435" height="91" as="geometry">
              <mxRectangle x="85" y="80" width="80" height="30" as="alternateBounds" />
            </mxGeometry>
          </mxCell>
        </object>
        <mxCell id="aKT1de0LB3l2bq885Tbr-81" value="" style="shape=partialRectangle;collapsible=0;dropTarget=0;pointerEvents=0;fillColor=none;points=[[0,0.5],[1,0.5]];portConstraint=eastwest;top=0;left=0;right=0;bottom=1;" vertex="1" parent="aKT1de0LB3l2bq885Tbr-80">
          <mxGeometry y="30" width="435" height="30" as="geometry" />
        </mxCell>
        <mxCell id="aKT1de0LB3l2bq885Tbr-82" value="PK" style="shape=partialRectangle;overflow=hidden;connectable=0;fillColor=none;top=0;left=0;bottom=0;right=0;fontStyle=1;" vertex="1" parent="aKT1de0LB3l2bq885Tbr-81">
          <mxGeometry width="30" height="30" as="geometry">
            <mxRectangle width="30" height="30" as="alternateBounds" />
          </mxGeometry>
        </mxCell>
        <mxCell id="aKT1de0LB3l2bq885Tbr-83" value="feature_id varchar(255) PRIMARY KEY UNIQUE NOT NULL" style="shape=partialRectangle;overflow=hidden;connectable=0;fillColor=none;top=0;left=0;bottom=0;right=0;align=left;spacingLeft=6;fontStyle=1;" vertex="1" parent="aKT1de0LB3l2bq885Tbr-81">
          <mxGeometry x="30" width="405" height="30" as="geometry">
            <mxRectangle width="405" height="30" as="alternateBounds" />
          </mxGeometry>
        </mxCell>
        <mxCell id="aKT1de0LB3l2bq885Tbr-84" value="" style="shape=partialRectangle;collapsible=0;dropTarget=0;pointerEvents=0;fillColor=none;points=[[0,0.5],[1,0.5]];portConstraint=eastwest;top=0;left=0;right=0;bottom=0;" vertex="1" parent="aKT1de0LB3l2bq885Tbr-80">
          <mxGeometry y="60" width="435" height="31" as="geometry" />
        </mxCell>
        <mxCell id="aKT1de0LB3l2bq885Tbr-85" value="" style="shape=partialRectangle;overflow=hidden;connectable=0;fillColor=none;top=0;left=0;bottom=0;right=0;" vertex="1" parent="aKT1de0LB3l2bq885Tbr-84">
          <mxGeometry width="30" height="31" as="geometry">
            <mxRectangle width="30" height="31" as="alternateBounds" />
          </mxGeometry>
        </mxCell>
        <mxCell id="aKT1de0LB3l2bq885Tbr-86" value="feature_name varchar(255) NOT NULL" style="shape=partialRectangle;overflow=hidden;connectable=0;fillColor=none;top=0;left=0;bottom=0;right=0;align=left;spacingLeft=6;fontSize=13;" vertex="1" parent="aKT1de0LB3l2bq885Tbr-84">
          <mxGeometry x="30" width="405" height="31" as="geometry">
            <mxRectangle width="405" height="31" as="alternateBounds" />
          </mxGeometry>
        </mxCell>
        <mxCell id="aKT1de0LB3l2bq885Tbr-90" value="" style="rounded=1;whiteSpace=wrap;html=1;" vertex="1" parent="1">
          <mxGeometry x="330" y="595" width="200" height="130" as="geometry" />
        </mxCell>
        <object label="game_genre" email="email&#xa;test" id="aKT1de0LB3l2bq885Tbr-91">
          <mxCell style="shape=table;startSize=30;container=1;collapsible=1;childLayout=tableLayout;fixedRows=1;rowLines=0;fontStyle=1;align=center;resizeLast=1;" vertex="1" parent="1">
            <mxGeometry x="340" y="614.5" width="175" height="91" as="geometry">
              <mxRectangle x="85" y="80" width="80" height="30" as="alternateBounds" />
            </mxGeometry>
          </mxCell>
        </object>
        <mxCell id="aKT1de0LB3l2bq885Tbr-92" value="" style="shape=partialRectangle;collapsible=0;dropTarget=0;pointerEvents=0;fillColor=none;points=[[0,0.5],[1,0.5]];portConstraint=eastwest;top=0;left=0;right=0;bottom=1;" vertex="1" parent="aKT1de0LB3l2bq885Tbr-91">
          <mxGeometry y="30" width="175" height="30" as="geometry" />
        </mxCell>
        <mxCell id="aKT1de0LB3l2bq885Tbr-93" value="FK" style="shape=partialRectangle;overflow=hidden;connectable=0;fillColor=none;top=0;left=0;bottom=0;right=0;fontStyle=0;" vertex="1" parent="aKT1de0LB3l2bq885Tbr-92">
          <mxGeometry width="30" height="30" as="geometry">
            <mxRectangle width="30" height="30" as="alternateBounds" />
          </mxGeometry>
        </mxCell>
        <mxCell id="aKT1de0LB3l2bq885Tbr-94" value="game_id varchar(255)" style="shape=partialRectangle;overflow=hidden;connectable=0;fillColor=none;top=0;left=0;bottom=0;right=0;align=left;spacingLeft=6;fontStyle=0;fontSize=13;" vertex="1" parent="aKT1de0LB3l2bq885Tbr-92">
          <mxGeometry x="30" width="145" height="30" as="geometry">
            <mxRectangle width="145" height="30" as="alternateBounds" />
          </mxGeometry>
        </mxCell>
        <mxCell id="aKT1de0LB3l2bq885Tbr-95" value="" style="shape=partialRectangle;collapsible=0;dropTarget=0;pointerEvents=0;fillColor=none;points=[[0,0.5],[1,0.5]];portConstraint=eastwest;top=0;left=0;right=0;bottom=0;" vertex="1" parent="aKT1de0LB3l2bq885Tbr-91">
          <mxGeometry y="60" width="175" height="31" as="geometry" />
        </mxCell>
        <mxCell id="aKT1de0LB3l2bq885Tbr-96" value="FK" style="shape=partialRectangle;overflow=hidden;connectable=0;fillColor=none;top=0;left=0;bottom=0;right=0;" vertex="1" parent="aKT1de0LB3l2bq885Tbr-95">
          <mxGeometry width="30" height="31" as="geometry">
            <mxRectangle width="30" height="31" as="alternateBounds" />
          </mxGeometry>
        </mxCell>
        <mxCell id="aKT1de0LB3l2bq885Tbr-97" value="genre_id varchar(255)" style="shape=partialRectangle;overflow=hidden;connectable=0;fillColor=none;top=0;left=0;bottom=0;right=0;align=left;spacingLeft=6;fontSize=13;" vertex="1" parent="aKT1de0LB3l2bq885Tbr-95">
          <mxGeometry x="30" width="145" height="31" as="geometry">
            <mxRectangle width="145" height="31" as="alternateBounds" />
          </mxGeometry>
        </mxCell>
        <mxCell id="aKT1de0LB3l2bq885Tbr-98" value="" style="fontSize=12;html=1;endArrow=ERzeroToOne;startArrow=ERmandOne;rounded=0;endSize=15;startSize=15;entryX=0.5;entryY=0;entryDx=0;entryDy=0;exitX=0.75;exitY=1;exitDx=0;exitDy=0;" edge="1" parent="1" source="VL071i1AqDFCpZDAVw9u-1" target="aKT1de0LB3l2bq885Tbr-90">
          <mxGeometry width="100" height="100" relative="1" as="geometry">
            <mxPoint x="429.47" y="475" as="sourcePoint" />
            <mxPoint x="429.47" y="585" as="targetPoint" />
          </mxGeometry>
        </mxCell>
        <mxCell id="aKT1de0LB3l2bq885Tbr-102" value="" style="fontSize=12;html=1;endArrow=ERzeroToOne;startArrow=ERmandOne;rounded=0;endSize=15;startSize=15;entryX=1;entryY=0.5;entryDx=0;entryDy=0;exitX=0;exitY=0.5;exitDx=0;exitDy=0;" edge="1" parent="1" source="aKT1de0LB3l2bq885Tbr-62" target="aKT1de0LB3l2bq885Tbr-90">
          <mxGeometry width="100" height="100" relative="1" as="geometry">
            <mxPoint x="610" y="465" as="sourcePoint" />
            <mxPoint x="610.53" y="585" as="targetPoint" />
            <Array as="points">
              <mxPoint x="590" y="660" />
            </Array>
          </mxGeometry>
        </mxCell>
        <mxCell id="aKT1de0LB3l2bq885Tbr-103" value="" style="edgeStyle=entityRelationEdgeStyle;fontSize=12;html=1;endArrow=ERzeroToMany;startArrow=ERmandOne;rounded=0;endSize=15;startSize=15;entryX=1.003;entryY=0.567;entryDx=0;entryDy=0;entryPerimeter=0;exitX=0;exitY=0.5;exitDx=0;exitDy=0;" edge="1" parent="1" source="aKT1de0LB3l2bq885Tbr-53" target="VL071i1AqDFCpZDAVw9u-1">
          <mxGeometry width="100" height="100" relative="1" as="geometry">
            <mxPoint x="710" y="545" as="sourcePoint" />
            <mxPoint x="810" y="445" as="targetPoint" />
          </mxGeometry>
        </mxCell>
        <mxCell id="aKT1de0LB3l2bq885Tbr-104" value="" style="edgeStyle=entityRelationEdgeStyle;fontSize=12;html=1;endArrow=ERzeroToMany;startArrow=ERmandOne;rounded=0;endSize=15;startSize=15;entryX=1.003;entryY=0.482;entryDx=0;entryDy=0;entryPerimeter=0;exitX=0;exitY=0.5;exitDx=0;exitDy=0;" edge="1" parent="1" source="aKT1de0LB3l2bq885Tbr-20" target="VL071i1AqDFCpZDAVw9u-1">
          <mxGeometry width="100" height="100" relative="1" as="geometry">
            <mxPoint x="720" y="555" as="sourcePoint" />
            <mxPoint x="820" y="455" as="targetPoint" />
          </mxGeometry>
        </mxCell>
        <mxCell id="aKT1de0LB3l2bq885Tbr-105" value="" style="rounded=1;whiteSpace=wrap;html=1;" vertex="1" parent="1">
          <mxGeometry x="330" y="755.5" width="210" height="130" as="geometry" />
        </mxCell>
        <object label="game_platform" email="email&#xa;test" id="aKT1de0LB3l2bq885Tbr-106">
          <mxCell style="shape=table;startSize=30;container=1;collapsible=1;childLayout=tableLayout;fixedRows=1;rowLines=0;fontStyle=1;align=center;resizeLast=1;" vertex="1" parent="1">
            <mxGeometry x="340" y="775" width="190" height="91" as="geometry">
              <mxRectangle x="85" y="80" width="80" height="30" as="alternateBounds" />
            </mxGeometry>
          </mxCell>
        </object>
        <mxCell id="aKT1de0LB3l2bq885Tbr-107" value="" style="shape=partialRectangle;collapsible=0;dropTarget=0;pointerEvents=0;fillColor=none;points=[[0,0.5],[1,0.5]];portConstraint=eastwest;top=0;left=0;right=0;bottom=1;" vertex="1" parent="aKT1de0LB3l2bq885Tbr-106">
          <mxGeometry y="30" width="190" height="30" as="geometry" />
        </mxCell>
        <mxCell id="aKT1de0LB3l2bq885Tbr-108" value="FK" style="shape=partialRectangle;overflow=hidden;connectable=0;fillColor=none;top=0;left=0;bottom=0;right=0;fontStyle=0;" vertex="1" parent="aKT1de0LB3l2bq885Tbr-107">
          <mxGeometry width="30" height="30" as="geometry">
            <mxRectangle width="30" height="30" as="alternateBounds" />
          </mxGeometry>
        </mxCell>
        <mxCell id="aKT1de0LB3l2bq885Tbr-109" value="game_id varchar(255)" style="shape=partialRectangle;overflow=hidden;connectable=0;fillColor=none;top=0;left=0;bottom=0;right=0;align=left;spacingLeft=6;fontStyle=0;fontSize=13;" vertex="1" parent="aKT1de0LB3l2bq885Tbr-107">
          <mxGeometry x="30" width="160" height="30" as="geometry">
            <mxRectangle width="160" height="30" as="alternateBounds" />
          </mxGeometry>
        </mxCell>
        <mxCell id="aKT1de0LB3l2bq885Tbr-110" value="" style="shape=partialRectangle;collapsible=0;dropTarget=0;pointerEvents=0;fillColor=none;points=[[0,0.5],[1,0.5]];portConstraint=eastwest;top=0;left=0;right=0;bottom=0;" vertex="1" parent="aKT1de0LB3l2bq885Tbr-106">
          <mxGeometry y="60" width="190" height="31" as="geometry" />
        </mxCell>
        <mxCell id="aKT1de0LB3l2bq885Tbr-111" value="FK" style="shape=partialRectangle;overflow=hidden;connectable=0;fillColor=none;top=0;left=0;bottom=0;right=0;" vertex="1" parent="aKT1de0LB3l2bq885Tbr-110">
          <mxGeometry width="30" height="31" as="geometry">
            <mxRectangle width="30" height="31" as="alternateBounds" />
          </mxGeometry>
        </mxCell>
        <mxCell id="aKT1de0LB3l2bq885Tbr-112" value="platform_id varchar(255)" style="shape=partialRectangle;overflow=hidden;connectable=0;fillColor=none;top=0;left=0;bottom=0;right=0;align=left;spacingLeft=6;fontSize=13;" vertex="1" parent="aKT1de0LB3l2bq885Tbr-110">
          <mxGeometry x="30" width="160" height="31" as="geometry">
            <mxRectangle width="160" height="31" as="alternateBounds" />
          </mxGeometry>
        </mxCell>
        <mxCell id="aKT1de0LB3l2bq885Tbr-113" value="" style="fontSize=12;html=1;endArrow=ERzeroToOne;startArrow=ERmandOne;rounded=0;endSize=15;startSize=15;entryX=1;entryY=0.5;entryDx=0;entryDy=0;exitX=0;exitY=0.5;exitDx=0;exitDy=0;" edge="1" parent="1" source="aKT1de0LB3l2bq885Tbr-71" target="aKT1de0LB3l2bq885Tbr-105">
          <mxGeometry width="100" height="100" relative="1" as="geometry">
            <mxPoint x="645" y="670" as="sourcePoint" />
            <mxPoint x="540" y="670" as="targetPoint" />
            <Array as="points" />
          </mxGeometry>
        </mxCell>
        <mxCell id="aKT1de0LB3l2bq885Tbr-114" value="" style="fontSize=12;html=1;endArrow=ERzeroToOne;startArrow=ERmandOne;rounded=0;endSize=15;startSize=15;entryX=0;entryY=0.5;entryDx=0;entryDy=0;exitX=0.453;exitY=1;exitDx=0;exitDy=0;exitPerimeter=0;" edge="1" parent="1" source="VL071i1AqDFCpZDAVw9u-1" target="aKT1de0LB3l2bq885Tbr-105">
          <mxGeometry width="100" height="100" relative="1" as="geometry">
            <mxPoint x="270" y="475" as="sourcePoint" />
            <mxPoint x="270" y="825" as="targetPoint" />
            <Array as="points">
              <mxPoint x="270" y="555" />
              <mxPoint x="270" y="821" />
            </Array>
          </mxGeometry>
        </mxCell>
        <mxCell id="aKT1de0LB3l2bq885Tbr-122" value="" style="rounded=1;whiteSpace=wrap;html=1;" vertex="1" parent="1">
          <mxGeometry x="325" y="915" width="210" height="130" as="geometry" />
        </mxCell>
        <object label="game_feature" email="email&#xa;test" id="aKT1de0LB3l2bq885Tbr-123">
          <mxCell style="shape=table;startSize=30;container=1;collapsible=1;childLayout=tableLayout;fixedRows=1;rowLines=0;fontStyle=1;align=center;resizeLast=1;" vertex="1" parent="1">
            <mxGeometry x="335" y="934.5" width="190" height="91" as="geometry">
              <mxRectangle x="85" y="80" width="80" height="30" as="alternateBounds" />
            </mxGeometry>
          </mxCell>
        </object>
        <mxCell id="aKT1de0LB3l2bq885Tbr-124" value="" style="shape=partialRectangle;collapsible=0;dropTarget=0;pointerEvents=0;fillColor=none;points=[[0,0.5],[1,0.5]];portConstraint=eastwest;top=0;left=0;right=0;bottom=1;" vertex="1" parent="aKT1de0LB3l2bq885Tbr-123">
          <mxGeometry y="30" width="190" height="30" as="geometry" />
        </mxCell>
        <mxCell id="aKT1de0LB3l2bq885Tbr-125" value="FK" style="shape=partialRectangle;overflow=hidden;connectable=0;fillColor=none;top=0;left=0;bottom=0;right=0;fontStyle=0;" vertex="1" parent="aKT1de0LB3l2bq885Tbr-124">
          <mxGeometry width="30" height="30" as="geometry">
            <mxRectangle width="30" height="30" as="alternateBounds" />
          </mxGeometry>
        </mxCell>
        <mxCell id="aKT1de0LB3l2bq885Tbr-126" value="game_id varchar(255)" style="shape=partialRectangle;overflow=hidden;connectable=0;fillColor=none;top=0;left=0;bottom=0;right=0;align=left;spacingLeft=6;fontStyle=0;fontSize=13;" vertex="1" parent="aKT1de0LB3l2bq885Tbr-124">
          <mxGeometry x="30" width="160" height="30" as="geometry">
            <mxRectangle width="160" height="30" as="alternateBounds" />
          </mxGeometry>
        </mxCell>
        <mxCell id="aKT1de0LB3l2bq885Tbr-127" value="" style="shape=partialRectangle;collapsible=0;dropTarget=0;pointerEvents=0;fillColor=none;points=[[0,0.5],[1,0.5]];portConstraint=eastwest;top=0;left=0;right=0;bottom=0;" vertex="1" parent="aKT1de0LB3l2bq885Tbr-123">
          <mxGeometry y="60" width="190" height="31" as="geometry" />
        </mxCell>
        <mxCell id="aKT1de0LB3l2bq885Tbr-128" value="FK" style="shape=partialRectangle;overflow=hidden;connectable=0;fillColor=none;top=0;left=0;bottom=0;right=0;" vertex="1" parent="aKT1de0LB3l2bq885Tbr-127">
          <mxGeometry width="30" height="31" as="geometry">
            <mxRectangle width="30" height="31" as="alternateBounds" />
          </mxGeometry>
        </mxCell>
        <mxCell id="aKT1de0LB3l2bq885Tbr-129" value="feature_id varchar(255)" style="shape=partialRectangle;overflow=hidden;connectable=0;fillColor=none;top=0;left=0;bottom=0;right=0;align=left;spacingLeft=6;fontSize=13;" vertex="1" parent="aKT1de0LB3l2bq885Tbr-127">
          <mxGeometry x="30" width="160" height="31" as="geometry">
            <mxRectangle width="160" height="31" as="alternateBounds" />
          </mxGeometry>
        </mxCell>
        <mxCell id="aKT1de0LB3l2bq885Tbr-130" value="" style="fontSize=12;html=1;endArrow=ERzeroToOne;startArrow=ERmandOne;rounded=0;endSize=15;startSize=15;entryX=1;entryY=0.5;entryDx=0;entryDy=0;exitX=0;exitY=0.5;exitDx=0;exitDy=0;" edge="1" parent="1" target="aKT1de0LB3l2bq885Tbr-122">
          <mxGeometry width="100" height="100" relative="1" as="geometry">
            <mxPoint x="720" y="979.74" as="sourcePoint" />
            <mxPoint x="540" y="979.74" as="targetPoint" />
            <Array as="points" />
          </mxGeometry>
        </mxCell>
        <mxCell id="aKT1de0LB3l2bq885Tbr-131" value="" style="fontSize=12;html=1;endArrow=ERzeroToOne;startArrow=ERmandOne;rounded=0;endSize=15;startSize=15;entryX=0.004;entryY=0.62;entryDx=0;entryDy=0;entryPerimeter=0;exitX=0.226;exitY=1;exitDx=0;exitDy=0;exitPerimeter=0;" edge="1" parent="1" source="VL071i1AqDFCpZDAVw9u-1" target="aKT1de0LB3l2bq885Tbr-122">
          <mxGeometry width="100" height="100" relative="1" as="geometry">
            <mxPoint x="150" y="475" as="sourcePoint" />
            <mxPoint x="320" y="995" as="targetPoint" />
            <Array as="points">
              <mxPoint x="150" y="555" />
              <mxPoint x="150" y="995" />
            </Array>
          </mxGeometry>
        </mxCell>
      </root>
    </mxGraphModel>
  </diagram>
</mxfile>
